<svg width="24" height="24" viewBox="0 0 24 24" fill="none" xmlns="http://www.w3.org/2000/svg">
<rect x="3" y="3" width="18" height="18" rx="4" fill="#b4befe"/>
<path d="M16.4687 7.85491C16.2786 7.73083 16.0471 7.68723 15.8249 7.73368C15.6027 7.78013 15.408 7.91284 15.2835 8.10267L11.0357 14.6004L9.20758 12.5692C9.05536 12.4006 8.84245 12.2993 8.61561 12.2876C8.38876 12.2759 8.16655 12.3547 7.99776 12.5067C7.82917 12.6589 7.72789 12.8718 7.71617 13.0987C7.70445 13.3255 7.78325 13.5477 7.93526 13.7165L10.5067 16.5737C10.5946 16.6708 10.7035 16.7466 10.8253 16.7951C10.947 16.8435 11.0782 16.8635 11.2088 16.8534C11.3394 16.8432 11.466 16.8033 11.5788 16.7366C11.6915 16.6699 11.7875 16.5783 11.8594 16.4687L16.7165 9.04017C16.8406 8.85007 16.8842 8.61851 16.8377 8.3963C16.7913 8.1741 16.6586 7.97939 16.4687 7.85491V7.85491Z" fill="#cdd6f4"/>
</svg>
