<svg width="48" height="26" viewBox="0 0 48 26" fill="none" xmlns="http://www.w3.org/2000/svg">
<g clip-path="url(#clip0_5_14)">
<path d="M40 13C40 10.2386 37.7614 8 35 8C32.2386 8 30 10.2386 30 13C30 15.7614 32.2386 18 35 18C37.7614 18 40 15.7614 40 13Z" stroke="white" stroke-opacity="0.5" stroke-width="2" stroke-linecap="round" stroke-linejoin="round"/>
<path d="M13 0H35C42.1797 0 48 5.8203 48 13C48 20.1797 42.1797 26 35 26H13C5.8203 26 0 20.1797 0 13C0 5.8203 5.8203 0 13 0Z" fill="white" fill-opacity="0.2"/>
<path d="M2 13C2 6.92487 6.92487 2 13 2C19.0751 2 24 6.92487 24 13C24 19.0751 19.0751 24 13 24C6.92487 24 2 19.0751 2 13Z" fill="white" fill-opacity="0.5"/>
</g>
<defs>
<clipPath id="clip0_5_14">
<rect width="48" height="26" fill="white"/>
</clipPath>
</defs>
</svg>
